<?xml version="1.0" encoding="UTF-8"?>
<!DOCTYPE svg PUBLIC "-//W3C//DTD SVG 1.1//EN" "http://www.w3.org/Graphics/SVG/1.1/DTD/svg11.dtd">
<!-- Creator: CorelDRAW 2020 (64-Bit) -->
<svg xmlns="http://www.w3.org/2000/svg" xml:space="preserve" width="478.485mm" height="163.119mm" version="1.1" viewBox="0 0 47848.52 16311.88"
 xmlns:xlink="http://www.w3.org/1999/xlink"
 xmlns:xodm="http://www.corel.com/coreldraw/odm/2003">
 <!-- <defs>
  <style type="text/css">
   <![CDATA[
    .fil0 {fill:#FFFFFF; fill-rule:nonzero}
    .fil1 {fill:#81AC4C;fill-rule:nonzero}
   ]]>
  </style>
 </defs> -->
 <g id="__x0023_Layer_x0020_1">
  <metadata id="CorelCorpID_0Corel-Layer"/>
  <path fill="#547333" d="M36439.89 9210.76c-105.77,0 -196.93,-34.14 -273.68,-102.32 -76.73,-68.14 -115.07,-163.68 -115.07,-286.43 0,-103.97 36.66,-193.47 109.97,-268.51 73.28,-75.03 163.67,-112.55 271.09,-112.55 107.42,0 199.03,37.11 274.92,111.24 75.86,74.18 113.83,164.13 113.83,269.82 0,121.1 -37.97,216.11 -113.83,285.15 -75.89,69.08 -164.95,103.6 -267.23,103.6zm3680.15 -864.44c0,86.95 -26.01,179.9 -78,278.77 -52.02,98.91 -131.32,193.1 -237.85,282.6 -106.55,89.51 -240.84,161.58 -402.8,216.11 -161.99,54.54 -344.4,81.83 -547.29,81.83 -431.39,0 -768.11,-125.72 -1010.2,-377.21 -242.12,-251.49 -363.15,-588.63 -363.15,-1011.48 0,-286.42 55.36,-539.64 166.23,-759.57 110.79,-219.94 271.09,-390.01 480.8,-510.2 209.7,-120.22 460.33,-180.32 751.89,-180.32 180.69,0 346.54,26.46 497.43,79.29 150.9,52.86 278.75,121.08 383.62,204.6 104.86,83.55 184.96,172.64 240.39,267.24 55.4,94.64 83.14,182.86 83.14,264.72 0,83.54 -31.15,154.31 -93.37,212.25 -62.25,57.98 -137.7,86.96 -226.34,86.96 -57.98,0 -106.11,-14.92 -144.49,-44.76 -38.34,-29.8 -81.44,-77.99 -129.15,-144.48 -85.27,-129.57 -174.33,-226.76 -267.24,-291.56 -92.95,-64.77 -211.01,-97.19 -354.22,-97.19 -206.3,0 -372.56,80.55 -498.72,241.68 -126.19,161.12 -189.24,381.51 -189.24,661.11 0,131.29 16.2,251.91 48.58,361.87 32.38,109.97 79.31,203.78 140.66,281.33 61.4,77.62 135.57,136.42 222.52,176.46 86.96,40.1 182.42,60.11 286.43,60.11 139.8,0 259.59,-32.38 359.32,-97.18 99.74,-64.77 187.97,-163.68 264.69,-296.66 42.61,-78.41 88.64,-139.8 138.11,-184.14 49.44,-44.34 109.97,-66.49 181.59,-66.49 85.23,0 156,32.38 212.25,97.15 56.26,64.84 84.41,133.88 84.41,207.16zm-10022.68 470.6c-168.77,131.29 -332.07,229.75 -489.75,295.38 -157.72,65.59 -334.63,98.46 -530.69,98.46 -179,0 -336.27,-35.42 -471.84,-106.15 -135.53,-70.72 -239.98,-166.63 -313.29,-287.69 -73.31,-121.07 -109.97,-252.32 -109.97,-393.85 0,-190.96 60.5,-353.78 181.59,-488.48 121.03,-134.67 287.29,-225.07 498.71,-271.09 44.31,-10.23 154.27,-33.25 329.9,-69.08 175.6,-35.79 326.08,-68.59 451.38,-98.46 125.33,-29.8 261.28,-66.04 407.93,-108.69 -8.54,-184.11 -45.64,-319.22 -111.24,-405.35 -65.66,-86.06 -201.64,-129.16 -407.93,-129.16 -177.32,0 -310.71,24.74 -400.22,74.18 -89.54,49.47 -166.26,123.64 -230.2,222.51 -63.94,98.88 -109.11,164.09 -135.53,195.65 -26.46,31.56 -83.13,47.3 -170.08,47.3 -78.45,0 -146.21,-25.15 -203.3,-75.45 -57.15,-50.26 -85.68,-114.65 -85.68,-193.09 0,-122.75 43.48,-242.09 130.43,-358.02 86.96,-115.94 222.49,-211.41 406.63,-286.46 184.14,-75 413.44,-112.53 687.95,-112.53 306.89,0 548.15,36.26 723.78,108.69 175.56,72.5 299.62,187.14 372.1,343.98 72.45,156.89 108.7,364.9 108.7,624.04 0,163.68 -0.45,302.65 -1.28,416.86 -0.89,114.24 -2.17,241.26 -3.86,381.06 0,131.29 21.74,268.13 65.22,410.48 43.48,142.36 65.21,233.99 65.21,274.92 0,71.59 -33.65,136.81 -101.01,195.65 -67.38,58.81 -143.66,88.23 -228.89,88.23 -71.62,0 -142.38,-33.69 -212.25,-101.01 -69.94,-67.35 -144.11,-164.99 -222.52,-292.83zm-46.03 -1010.21l0 0c-102.28,37.52 -251.07,77.17 -446.27,118.92 -195.24,41.79 -330.35,72.49 -405.35,92.06 -75.07,19.63 -146.66,57.98 -214.84,115.1 -68.21,57.15 -102.28,136.8 -102.28,239.12 0,105.73 40.03,195.65 120.2,269.82 80.09,74.14 184.96,111.24 314.57,111.24 138.08,0 265.51,-30.24 382.33,-90.81 116.76,-60.49 202.44,-138.49 257.01,-233.99 63.08,-105.7 94.63,-279.6 94.63,-521.72l0 -99.74zm-18329.31 -1048.58l0 84.4c122.75,-161.94 257.03,-280.86 402.8,-356.76 145.77,-75.84 313.28,-113.8 502.54,-113.8 184.14,0 348.66,40.08 493.6,120.19 144.88,80.17 253.18,193.53 324.78,340.14 46.05,85.3 75.85,177.35 89.52,276.23 13.63,98.91 20.45,225.06 20.45,378.51l0 1299.18c0,139.8 -31.95,245.5 -95.89,317.12 -63.94,71.62 -147.06,107.42 -249.36,107.42 -104.01,0 -188.41,-36.69 -253.18,-109.97 -64.82,-73.31 -97.19,-178.14 -97.19,-314.57l0 -1163.65c0,-230.17 -31.97,-406.21 -95.91,-528.1 -63.94,-121.89 -191.41,-182.87 -382.33,-182.87 -124.48,0 -237.85,37.07 -340.16,111.25 -102.28,74.17 -177.33,176.08 -225.05,305.61 -34.12,104.01 -51.14,298.38 -51.14,583.12l0 874.64c0,141.52 -32.85,247.67 -98.46,318.39 -65.66,70.73 -150.5,106.15 -254.47,106.15 -100.62,0 -183.3,-36.69 -248.08,-109.97 -64.81,-73.31 -97.19,-178.14 -97.19,-314.57l0 -2017.83c0,-133 28.97,-232.3 86.96,-297.96 57.94,-65.62 137.23,-98.46 237.84,-98.46 61.38,0 116.78,14.5 166.25,43.47 49.42,29.03 89.07,72.5 118.91,130.43 29.81,57.98 44.76,128.76 44.76,212.26zm8140.4 125.33l0 2028.06c0,231.89 -24.73,431.36 -74.17,598.44 -49.47,167.09 -128.74,305.18 -237.85,414.28 -109.12,109.11 -251.9,190.11 -428.36,242.99 -176.48,52.81 -396.02,79.27 -658.55,79.27 -240.4,0 -455.23,-33.69 -644.47,-101.01 -189.26,-67.39 -335.04,-154.34 -437.34,-260.86 -102.3,-106.59 -153.45,-216.09 -153.45,-328.6 0,-85.3 28.98,-154.76 86.96,-208.47 57.94,-53.67 127.86,-80.54 209.7,-80.54 102.3,0 191.82,45.16 268.55,135.53 37.48,46.06 76.27,92.5 116.35,139.39 40.05,46.88 84.41,86.95 133,120.19 48.6,33.24 106.97,57.92 175.19,74.15 68.16,16.19 146.6,24.29 235.28,24.29 180.69,0 320.96,-25.15 420.7,-75.43 99.75,-50.29 169.63,-120.6 209.72,-210.97 40.03,-90.4 63.49,-187.14 70.33,-290.28 6.78,-103.12 11.9,-268.93 15.33,-497.41 -107.4,150.04 -231.44,264.28 -372.11,342.69 -140.66,78.44 -308.16,117.65 -502.53,117.65 -233.61,0 -437.77,-59.67 -612.52,-179.01 -174.79,-119.34 -309.05,-286.46 -402.8,-501.26 -93.78,-214.84 -140.65,-462.92 -140.65,-744.25 0,-209.7 28.53,-398.94 85.66,-567.75 57.11,-168.77 138.51,-311.12 244.24,-427.09 105.7,-115.92 227.62,-203.32 365.72,-262.13 138.11,-58.83 289.83,-88.25 455.23,-88.25 197.77,0 369.11,37.97 514.04,113.81 144.91,75.9 279.61,194.8 404.1,356.77l0 -94.63c0,-121.03 29.8,-214.82 89.5,-281.31 59.67,-66.51 136.39,-99.75 230.17,-99.75 134.67,0 224.17,43.92 268.54,131.72 44.31,87.83 66.49,214.42 66.49,379.77zm-2022.96 884.87l0 0c0,283.05 61.79,497.03 185.42,641.93 123.61,144.93 283.44,217.38 479.52,217.38 115.93,0 225.47,-31.07 328.65,-93.33 103.12,-62.21 187.08,-156.02 251.9,-281.32 64.77,-125.34 97.19,-277.51 97.19,-456.51 0,-284.7 -62.67,-506.36 -187.98,-664.94 -125.32,-158.58 -290.27,-237.85 -494.88,-237.85 -199.47,0 -359.32,75.9 -479.52,227.62 -120.2,151.75 -180.3,367.42 -180.3,647.02zm28375.02 74.17l0 928.35c0,146.66 -33.24,256.63 -99.73,329.94 -66.49,73.28 -154.31,109.97 -263.42,109.97 -105.73,0 -191.4,-36.69 -257.03,-109.97 -65.63,-73.31 -98.46,-183.28 -98.46,-329.94l0 -1112.49c0,-175.56 -6,-311.98 -17.88,-409.17 -11.96,-97.19 -44.38,-176.87 -97.19,-239.12 -52.88,-62.22 -136.43,-93.37 -250.63,-93.37 -228.51,0 -378.96,78.45 -451.41,235.3 -72.49,156.89 -108.69,381.93 -108.69,675.17l0 943.68c0,144.97 -32.84,254.49 -98.47,328.67 -65.62,74.13 -152.17,111.24 -259.58,111.24 -105.73,0 -192.24,-37.11 -259.56,-111.24 -67.38,-74.18 -101.04,-183.7 -101.04,-328.67l0 -1997.36c0,-131.27 30.25,-231.01 90.81,-299.22 60.5,-68.16 140.22,-102.3 239.12,-102.3 95.47,0 175.19,31.97 239.13,95.91 63.91,63.94 95.88,152.17 95.88,264.7l0 66.47c121.06,-144.88 250.63,-251.45 388.74,-319.67 138.11,-68.18 291.56,-102.3 460.33,-102.3 175.6,0 326.5,34.97 452.69,104.87 126.16,69.92 230.17,175.61 312.02,317.1 117.62,-143.19 243.78,-249.34 378.48,-318.39 134.67,-69.04 283.88,-103.58 447.55,-103.58 190.96,0 355.5,37.54 493.62,112.54 138.08,75.05 241.22,182.45 309.43,322.25 59.67,126.19 89.51,324.77 89.51,595.86l0 1363.12c0,146.66 -33.25,256.63 -99.74,329.94 -66.49,73.28 -154.3,109.97 -263.41,109.97 -105.73,0 -192.24,-37.11 -259.59,-111.24 -67.35,-74.18 -101.01,-183.7 -101.01,-328.67l0 -1173.84c0,-150.04 -6.41,-270.24 -19.19,-360.6 -12.78,-90.37 -47.3,-166.26 -103.56,-227.62 -56.25,-61.39 -141.56,-92.09 -255.76,-92.09 -92.05,0 -179.46,27.29 -262.14,81.86 -82.71,54.57 -147.03,127.85 -193.1,219.93 -51.12,117.65 -76.72,325.67 -76.72,624.01zm-11585.3 974.42c-168.78,131.29 -332.08,229.75 -489.76,295.38 -157.71,65.59 -334.62,98.46 -530.68,98.46 -179.01,0 -336.28,-35.42 -471.84,-106.15 -135.53,-70.72 -239.99,-166.63 -313.3,-287.69 -73.31,-121.07 -109.96,-252.32 -109.96,-393.85 0,-190.96 60.49,-353.78 181.59,-488.48 121.02,-134.67 287.28,-225.07 498.71,-271.09 44.3,-10.23 154.27,-33.25 329.9,-69.08 175.6,-35.79 326.08,-68.59 451.38,-98.46 125.33,-29.8 261.27,-66.04 407.93,-108.69 -8.54,-184.11 -45.65,-319.22 -111.24,-405.35 -65.66,-86.06 -201.64,-129.16 -407.93,-129.16 -177.32,0 -310.72,24.74 -400.22,74.18 -89.54,49.47 -166.26,123.64 -230.2,222.51 -63.94,98.88 -109.11,164.09 -135.53,195.65 -26.46,31.56 -83.13,47.3 -170.09,47.3 -78.44,0 -146.21,-25.15 -203.29,-75.45 -57.16,-50.26 -85.68,-114.65 -85.68,-193.09 0,-122.75 43.48,-242.09 130.43,-358.02 86.95,-115.94 222.48,-211.41 406.62,-286.46 184.14,-75 413.45,-112.53 687.96,-112.53 306.88,0 548.14,36.26 723.78,108.69 175.56,72.5 299.62,187.14 372.1,343.98 72.45,156.89 108.69,364.9 108.69,624.04 0,163.68 -0.45,302.65 -1.27,416.86 -0.9,114.24 -2.17,241.26 -3.86,381.06 0,131.29 21.74,268.13 65.22,410.48 43.47,142.36 65.21,233.99 65.21,274.92 0,71.59 -33.66,136.81 -101.01,195.65 -67.39,58.81 -143.66,88.23 -228.89,88.23 -71.62,0 -142.39,-33.69 -212.25,-101.01 -69.94,-67.35 -144.11,-164.99 -222.52,-292.83zm-46.03 -1010.21l0 0c-102.28,37.52 -251.08,77.17 -446.28,118.92 -195.23,41.79 -330.35,72.49 -405.35,92.06 -75.07,19.63 -146.65,57.98 -214.83,115.1 -68.22,57.15 -102.29,136.8 -102.29,239.12 0,105.73 40.03,195.65 120.2,269.82 80.1,74.14 184.97,111.24 314.57,111.24 138.08,0 265.52,-30.24 382.34,-90.81 116.75,-60.49 202.43,-138.49 257,-233.99 63.08,-105.7 94.64,-279.6 94.64,-521.72l0 -99.74zm-29979.67 7168.08c-842.93,0 -1607.85,-579.09 -1807.53,-1434.44l687.09 -160.4c144.22,617.81 764.06,1003.25 1382.09,858.97l160.37 687.09c-141.32,32.97 -282.76,48.78 -422.02,48.78zm26841.67 -6188.57l0 -3028.03c0,-139.79 31.11,-245.52 93.36,-317.14 62.22,-71.61 146.18,-107.4 251.91,-107.4 105.69,0 190.93,35.4 255.73,106.12 64.8,70.78 97.18,176.91 97.18,318.42l0 3028.03c0,141.52 -32.83,247.67 -98.46,318.39 -65.66,70.73 -150.48,106.15 -254.45,106.15 -102.32,0 -185.42,-36.69 -249.36,-109.97 -63.94,-73.31 -95.91,-178.14 -95.91,-314.57zm-10031.85 -5853.82c-144.23,-617.86 -764.22,-1003.28 -1382.07,-858.93l-160.4 -687.09c996.65,-232.67 1996.88,388.9 2229.53,1385.62l-687.06 160.4zm973.32 5030.3l-1365.65 0c1.66,158.58 33.63,298.38 95.88,419.44 62.22,121.06 144.9,212.26 248.08,273.65 103.15,61.39 216.94,92.05 341.45,92.05 83.51,0 159.81,-9.78 228.86,-29.39 69.04,-19.6 135.94,-50.29 200.75,-92.08 64.76,-41.76 124.43,-86.51 179,-134.26 54.57,-47.71 125.34,-112.52 212.29,-194.37 35.8,-30.7 86.95,-46.03 153.45,-46.03 71.62,0 129.57,19.61 173.9,58.81 44.31,39.24 66.49,94.64 66.49,166.23 0,63.11 -24.73,136.84 -74.17,221.24 -49.47,84.41 -124.02,165.4 -223.76,242.95 -99.73,77.62 -225.07,141.94 -375.96,193.1 -150.9,51.16 -324.39,76.72 -520.42,76.72 -448.42,0 -797.06,-127.88 -1046,-383.61 -248.95,-255.77 -373.38,-602.69 -373.38,-1040.9 0,-206.26 30.69,-397.67 92.08,-574.16 61.36,-176.46 150.86,-327.74 268.51,-453.96 117.65,-126.13 262.55,-222.88 434.78,-290.25 172.18,-67.34 363.18,-101.03 572.88,-101.03 272.72,0 506.75,57.55 701.98,172.63 195.2,115.09 341.44,263.88 438.63,446.3 97.15,182.45 145.76,368.24 145.76,557.52 0,175.63 -50.3,289.42 -150.89,341.41 -100.63,52.02 -242.12,77.99 -424.54,77.99zm-1365.65 -396.39l0 0 1265.91 0c-17.05,-238.68 -81.44,-417.27 -193.1,-535.78 -111.69,-118.48 -258.7,-177.77 -441.11,-177.77 -173.91,0 -316.75,60.12 -428.4,180.32 -111.69,120.2 -179.46,297.93 -203.3,533.23zm-5004.98 1250.61c-168.79,131.29 -332.07,229.75 -489.75,295.38 -157.72,65.59 -334.63,98.46 -530.67,98.46 -179.02,0 -336.31,-35.42 -471.86,-106.15 -135.54,-70.72 -240,-166.63 -313.28,-287.69 -73.32,-121.07 -109.96,-252.32 -109.96,-393.85 0,-190.96 60.49,-353.78 181.57,-488.48 121.04,-134.67 287.27,-225.07 498.7,-271.09 44.32,-10.23 154.28,-33.25 329.91,-69.08 175.58,-35.79 326.08,-68.59 451.4,-98.46 125.31,-29.8 261.26,-66.04 407.91,-108.69 -8.56,-184.11 -45.63,-319.22 -111.25,-405.35 -65.65,-86.06 -201.63,-129.16 -407.9,-129.16 -177.36,0 -310.75,24.74 -400.26,74.18 -89.5,49.47 -166.24,123.64 -230.16,222.51 -63.94,98.88 -109.14,164.09 -135.55,195.65 -26.46,31.56 -83.11,47.3 -170.07,47.3 -78.44,0 -146.22,-25.15 -203.33,-75.45 -57.13,-50.26 -85.66,-114.65 -85.66,-193.09 0,-122.75 43.48,-242.09 130.42,-358.02 86.95,-115.94 222.5,-211.41 406.64,-286.46 184.14,-75 413.43,-112.53 687.97,-112.53 306.89,0 548.13,36.26 723.74,108.69 175.6,72.5 299.64,187.14 372.12,343.98 72.45,156.89 108.7,364.9 108.7,624.04 0,163.68 -0.45,302.65 -1.3,416.86 -0.87,114.24 -2.15,241.26 -3.82,381.06 0,131.29 21.74,268.13 65.22,410.48 43.47,142.36 65.21,233.99 65.21,274.92 0,71.59 -33.69,136.81 -101.03,195.65 -67.36,58.81 -143.66,88.23 -228.89,88.23 -71.6,0 -142.37,-33.69 -212.27,-101.01 -69.93,-67.35 -144.09,-164.99 -222.5,-292.83zm-46.03 -1010.21l0 0c-102.3,37.52 -251.07,77.17 -446.27,118.92 -195.25,41.79 -330.35,72.49 -405.37,92.06 -75.03,19.63 -146.64,57.98 -214.82,115.1 -68.21,57.15 -102.3,136.8 -102.3,239.12 0,105.73 40.05,195.65 120.2,269.82 80.13,74.14 184.98,111.24 314.57,111.24 138.1,0 265.53,-30.24 382.34,-90.81 116.77,-60.49 202.45,-138.49 257.02,-233.99 63.06,-105.7 94.63,-279.6 94.63,-521.72l0 -99.74zm27372.48 -15.33c0,208.01 -32.41,399.84 -97.18,575.4 -64.8,175.63 -158.55,326.53 -281.33,452.68 -122.75,126.2 -269.4,222.94 -439.87,290.29 -170.5,67.32 -362.32,101.01 -575.43,101.01 -211.43,0 -401.53,-34.14 -570.3,-102.32 -168.81,-68.14 -315.02,-165.78 -438.63,-292.8 -123.61,-127.02 -217.35,-277.05 -281.3,-450.14 -63.94,-173.01 -95.91,-364.42 -95.91,-574.12 0,-211.39 32.35,-404.94 97.19,-580.57 64.77,-175.56 157.68,-325.63 278.74,-450.1 121.06,-124.44 267.69,-220.35 439.91,-287.72 172.18,-67.33 362.28,-101.02 570.3,-101.02 211.39,0 403.21,34.14 575.43,102.3 172.19,68.21 319.67,165.4 442.46,291.57 122.74,126.16 216.07,276.2 280.01,450.1 63.94,173.91 95.91,365.7 95.91,575.44zm-700.73 0l0 0c0,-284.74 -62.66,-506.4 -187.96,-664.97 -125.34,-158.55 -293.73,-237.82 -505.12,-237.82 -136.43,0 -256.63,35.38 -360.6,106.11 -104.01,70.8 -184.14,175.18 -240.4,313.3 -56.26,138.11 -84.4,299.24 -84.4,483.38 0,182.45 27.69,341.86 83.13,478.21 55.36,136.43 134.66,240.85 237.85,313.3 103.11,72.48 224.62,108.69 364.42,108.69 211.39,0 379.78,-79.68 505.12,-239.12 125.3,-159.41 187.96,-379.79 187.96,-661.08zm-35893.94 -1744.2c-97.18,0 -180.3,-29.82 -249.35,-89.52 -69.04,-59.65 -103.58,-144.06 -103.58,-253.18 0,-98.86 35.36,-180.3 106.14,-244.24 70.73,-63.94 153,-95.91 246.79,-95.91 90.35,0 170.46,29.02 240.4,86.95 69.9,57.98 104.85,142.39 104.85,253.2 0,107.42 -34.12,191.41 -102.28,251.9 -68.22,60.55 -149.23,90.8 -242.97,90.8zm345.25 721.21l0 0 0 2017.83c0,139.8 -33.24,245.5 -99.73,317.12 -66.49,71.62 -150.9,107.42 -253.18,107.42 -102.31,0 -185.42,-36.69 -249.36,-109.97 -63.94,-73.31 -95.91,-178.14 -95.91,-314.57l0 -1997.4c0,-138.08 31.97,-242.07 95.91,-311.99 63.94,-69.9 147.05,-104.86 249.36,-104.86 102.28,0 186.69,34.96 253.18,104.86 66.49,69.92 99.73,167.11 99.73,291.56zm3288.9 115.07l0 2028.06c0,231.89 -24.74,431.36 -74.18,598.44 -49.47,167.09 -128.74,305.18 -237.85,414.28 -109.12,109.11 -251.9,190.11 -428.36,242.99 -176.47,52.81 -396.01,79.27 -658.55,79.27 -240.39,0 -455.23,-33.69 -644.47,-101.01 -189.26,-67.39 -335.04,-154.34 -437.34,-260.86 -102.3,-106.59 -153.44,-216.09 -153.44,-328.6 0,-85.3 28.97,-154.76 86.95,-208.47 57.95,-53.67 127.87,-80.54 209.7,-80.54 102.31,0 191.83,45.16 268.55,135.53 37.48,46.06 76.27,92.5 116.36,139.39 40.05,46.88 84.4,86.95 133,120.19 48.59,33.24 106.97,57.92 175.18,74.15 68.16,16.19 146.61,24.29 235.28,24.29 180.7,0 320.96,-25.15 420.7,-75.43 99.75,-50.29 169.64,-120.6 209.72,-210.97 40.03,-90.4 63.49,-187.14 70.33,-290.28 6.79,-103.12 11.9,-268.93 15.33,-497.41 -107.4,150.04 -231.44,264.28 -372.1,342.69 -140.67,78.44 -308.17,117.65 -502.54,117.65 -233.61,0 -437.77,-59.67 -612.52,-179.01 -174.79,-119.34 -309.04,-286.46 -402.8,-501.26 -93.78,-214.84 -140.65,-462.92 -140.65,-744.25 0,-209.7 28.53,-398.94 85.67,-567.75 57.1,-168.77 138.51,-311.12 244.24,-427.09 105.69,-115.92 227.61,-203.32 365.71,-262.13 138.11,-58.83 289.84,-88.25 455.24,-88.25 197.76,0 369.1,37.97 514.04,113.81 144.9,75.9 279.6,194.8 404.09,356.77l0 -94.63c0,-121.03 29.8,-214.82 89.5,-281.31 59.67,-66.51 136.4,-99.75 230.17,-99.75 134.67,0 224.19,43.92 268.55,131.72 44.3,87.83 66.49,214.42 66.49,379.77zm-2022.96 884.87l0 0c0,283.05 61.78,497.03 185.41,641.93 123.61,144.93 283.45,217.38 479.52,217.38 115.93,0 225.47,-31.07 328.65,-93.33 103.13,-62.21 187.09,-156.02 251.9,-281.32 64.77,-125.34 97.19,-277.51 97.19,-456.51 0,-284.7 -62.67,-506.36 -187.98,-664.94 -125.32,-158.58 -290.27,-237.85 -494.87,-237.85 -199.47,0 -359.33,75.9 -479.52,227.62 -120.2,151.75 -180.3,367.42 -180.3,647.02z"/>
  <path  fill="#81AC4C" d="M24529.78 8042.01l549.87 -2048.54c40.89,-156.84 77.55,-276.21 109.97,-358.05 32.35,-81.84 85.23,-152.57 158.54,-212.27 73.28,-59.65 173.05,-89.5 299.24,-89.5 127.85,0 227.17,31.12 297.93,93.34 70.73,62.26 119.75,130.04 147.07,203.32 27.25,73.32 63.91,194.37 109.97,363.16l554.97 2048.54 491.03 -2189.2c23.84,-114.21 46.44,-203.71 67.77,-268.53 21.29,-64.79 57.94,-122.77 109.96,-173.91 51.99,-51.16 127.44,-76.72 226.35,-76.72 98.84,0 182.86,32.85 251.9,98.46 69.04,65.65 103.56,147.93 103.56,246.79 0,69.93 -18.78,181.57 -56.26,335.03l-624.01 2524.21c-42.65,170.5 -77.99,295.38 -106.14,374.69 -28.11,79.27 -75.86,148.76 -143.21,208.42 -67.39,59.64 -162.41,89.51 -285.15,89.51 -115.97,0 -208.88,-29.01 -278.78,-86.96 -69.94,-57.94 -118.51,-123.16 -145.76,-195.64 -27.29,-72.45 -65.67,-196.48 -115.1,-372.11l-606.1 -2248.01 -613.81 2248.01c-47.75,170.5 -85.68,292.84 -113.79,366.97 -28.15,74.18 -77.17,140.67 -147.08,199.51 -69.9,58.81 -162.81,88.23 -278.74,88.23 -93.81,0 -170.94,-17.5 -231.44,-52.44 -60.56,-34.93 -109.59,-84.4 -147.07,-148.34 -37.52,-63.91 -68.21,-139.77 -92.05,-227.58 -23.91,-87.82 -45.2,-169.23 -63.94,-244.26l-1651.76 -6943.01c-69.86,-299.29 -252.11,-553.47 -513.13,-715.7 -261,-162.21 -569.55,-213.09 -868.92,-143.23l-19330.54 4512.49c-617.84,144.23 -1003.16,764.23 -858.93,1382.07l1887.69 8086.47c144.23,617.85 764.36,1003.11 1382.07,858.94l19330.54 -4512.49 160.4 687.09 -19330.54 4512.49c-141.32,32.96 -282.82,48.81 -422.09,48.81 -842.93,0 -1607.78,-579.05 -1807.47,-1434.43l-1887.69 -8086.48c-112.71,-482.83 -30.66,-980.64 231.05,-1401.75 261.7,-421.1 671.74,-715.08 1154.57,-827.81l19330.53 -4512.49c482.85,-112.69 980.65,-30.66 1401.73,231.07 421.13,261.7 715.1,671.74 827.82,1154.55l1534.97 6607.28zm-18730.84 -20.46c0,226.75 -58.41,430.53 -175.18,611.22 -116.81,180.73 -287.72,322.22 -512.77,424.54 -225.05,102.29 -491.91,153.45 -800.49,153.45 -369.98,0 -675.17,-69.9 -915.56,-209.7 -170.52,-100.6 -309.06,-234.86 -415.59,-402.81 -106.57,-167.91 -159.85,-331.21 -159.85,-489.75 0,-92.09 31.97,-170.91 95.91,-236.57 63.94,-65.63 145.33,-98.47 244.24,-98.47 80.12,0 147.88,25.57 203.32,76.73 55.38,51.16 102.69,127.02 141.93,227.61 47.72,119.38 99.31,219.11 154.72,299.21 55.4,80.17 133.4,146.21 234.01,198.23 100.58,52.02 232.73,78 396.41,78 225.07,0 407.92,-52.44 548.58,-157.3 140.66,-104.84 210.99,-235.68 210.99,-392.57 0,-124.44 -37.96,-225.45 -113.8,-303.07 -75.9,-77.55 -173.91,-136.8 -294.11,-177.73 -120.2,-40.93 -280.93,-84.41 -482.09,-130.43 -269.41,-63.05 -494.87,-136.84 -676.45,-221.21 -181.57,-84.41 -325.68,-199.51 -432.2,-345.27 -106.57,-145.76 -159.85,-326.92 -159.85,-543.46 0,-206.28 56.27,-389.57 168.79,-549.86 112.53,-160.23 275.33,-283.43 488.48,-369.55 213.11,-86.08 463.74,-129.14 751.89,-129.14 230.17,0 429.23,28.56 597.18,85.66 167.91,57.15 307.28,133 418.14,227.62 110.82,94.63 191.81,193.97 242.95,297.95 51.16,104 76.72,205.48 76.72,304.34 0,90.38 -31.97,171.79 -95.89,244.24 -63.94,72.48 -143.66,108.69 -239.12,108.69 -86.96,0 -153.05,-21.74 -198.22,-65.22 -45.18,-43.47 -94.22,-114.65 -147.05,-213.56 -68.21,-141.49 -150.05,-251.9 -245.52,-331.17 -95.49,-79.29 -248.94,-118.93 -460.33,-118.93 -196.1,0 -354.21,43.08 -474.41,129.16 -120.2,86.11 -180.3,189.68 -180.3,310.73 0,75.03 20.45,139.82 61.38,194.35 40.91,54.59 97.18,101.46 168.79,140.67 71.61,39.24 144.06,69.93 217.39,92.07 73.27,22.18 194.35,54.57 363.14,97.18 211.39,49.47 402.8,104.01 574.16,163.68 171.35,59.7 317.12,132.15 437.32,217.38 120.2,85.27 213.96,193.1 281.33,323.53 67.33,130.43 101.01,290.25 101.01,479.53z"/>
 </g>
</svg>
